<?xml version="1.0" encoding="UTF-8" standalone="no"?>
<!-- Created with Inkscape (http://www.inkscape.org/) -->

<svg
   width="210mm"
   height="297mm"
   viewBox="0 0 210 297"
   version="1.1"
   id="svg5"
   inkscape:version="1.1.1 (3bf5ae0d25, 2021-09-20)"
   sodipodi:docname="NW-logo.svg"
   xmlns:inkscape="http://www.inkscape.org/namespaces/inkscape"
   xmlns:sodipodi="http://sodipodi.sourceforge.net/DTD/sodipodi-0.dtd"
   xmlns="http://www.w3.org/2000/svg"
   xmlns:svg="http://www.w3.org/2000/svg">
  <sodipodi:namedview
     id="namedview7"
     pagecolor="#ffffff"
     bordercolor="#666666"
     borderopacity="1.0"
     inkscape:pageshadow="2"
     inkscape:pageopacity="0.0"
     inkscape:pagecheckerboard="0"
     inkscape:document-units="mm"
     showgrid="false"
     inkscape:zoom="0.77771465"
     inkscape:cx="166.51352"
     inkscape:cy="86.14985"
     inkscape:window-width="2048"
     inkscape:window-height="1090"
     inkscape:window-x="-6"
     inkscape:window-y="-6"
     inkscape:window-maximized="1"
     inkscape:current-layer="layer1" />
  <defs
     id="defs2">
    <linearGradient
       id="linearGradient65497"
       inkscape:swatch="solid">
      <stop
         style="stop-color:#9dac93;stop-opacity:1;"
         offset="0"
         id="stop65495" />
    </linearGradient>
    <linearGradient
       id="linearGradient64397"
       inkscape:swatch="solid">
      <stop
         style="stop-color:#000000;stop-opacity:1;"
         offset="0"
         id="stop64395" />
    </linearGradient>
    <linearGradient
       id="linearGradient63763"
       inkscape:swatch="solid">
      <stop
         style="stop-color:#164216;stop-opacity:1;"
         offset="0"
         id="stop63761" />
    </linearGradient>
  </defs>
  <g
     inkscape:label="Layer 1"
     inkscape:groupmode="layer"
     id="layer1">
    <ellipse
       style="fill:#a7a893;stroke-width:1.35454;stroke-linecap:round;stroke-miterlimit:4;stroke-dasharray:none;paint-order:fill markers stroke;fill-opacity:1"
       id="path54573"
       cx="106.08991"
       cy="126.43417"
       rx="102.91238"
       ry="103.59277" />
    <path
       id="path61593"
       style="fill:#008080;fill-opacity:1;stroke:#000000;stroke-width:1.225;stroke-linecap:butt;stroke-linejoin:miter;stroke-opacity:1;stroke-miterlimit:4;stroke-dasharray:none"
       d="m 118.5645,27.53702 c -0.33213,0.874878 -0.37078,2.639054 -0.75768,3.658302 -0.16693,0.439661 0.11845,1.195025 0,1.663117 -0.43718,1.727466 -0.0688,3.596508 -0.50529,5.32142 -0.32869,1.298701 -6.53147,2.49298 -6.99555,3.715459 -0.11493,0.302769 6.56749,3.168112 6.49076,3.269078 -0.0595,0.07836 -0.19284,-0.07836 -0.25236,0 -0.0579,0.07624 -12.96613,7.454141 -13.05858,7.697715 -0.43701,1.151162 11.01096,-2.230581 10.78607,-1.045706 -0.13874,0.730916 -3.51541,3.239033 -6.22723,5.338088 -5.1143,1.048176 -12.36105,2.314704 -12.583543,2.900817 -0.257997,0.679621 4.696893,0.851481 8.945513,1.101923 -0.11569,0.256803 -0.38597,0.367431 -0.48829,0.636947 -0.18967,0.499667 0.301,2.264267 0,2.66071 -0.15463,0.203655 -1.0077,0.441375 -1.26246,0.665055 -0.39179,0.34406 -1.0012,1.147031 -1.26244,1.663127 -0.14764,0.291697 -0.0144,0.840805 -0.25237,0.997583 -0.35333,0.232695 -0.48302,0.22981 -0.51754,0.159598 -0.0506,0.118252 -0.1253,0.27856 -0.24016,0.505457 -0.25746,0.508637 -0.34881,0.261164 -0.757662,0.665064 -0.695503,0.687043 -1.375595,2.032835 -2.272515,2.328183 -0.699171,0.230215 -2.810457,0.02213 -3.282573,0.332997 -0.758309,0.499409 -3.09562,1.152379 -4.040252,1.33012 -0.259855,0.04886 -0.743453,-0.117053 -1.010062,0 -1.178464,0.517395 -2.938103,3.235088 -4.040252,4.323827 -1.322152,1.306077 -1.89936,1.90861 -0.252384,2.993238 1.393857,0.917931 1.351831,1.347322 3.030191,1.663127 0.388231,0.07301 0.698642,-0.460441 1.010063,-0.665535 0.504655,-0.332343 1.400106,0 2.020125,0 0.342047,0 1.787799,-0.305313 2.019596,0 0.238064,0.313573 -3e-6,0.887131 0,1.33059 0,0.444953 -0.216352,2.708261 0,2.993237 0.05951,0.07836 0.193381,-0.07836 0.252912,0 0.09387,0.12359 0.01357,2.239561 0,2.328182 -0.07382,0.486171 -0.413994,0.849601 -0.505297,1.33059 -0.06128,0.322664 0.178555,0.76242 0,0.997586 -0.559068,0.736355 -1.314448,1.291335 -2.020125,1.663121 -0.893469,0.470731 -1.833685,1.414082 -2.777274,1.662647 -0.24761,0.06522 -0.512716,-0.08067 -0.757681,0 -0.115498,0.03803 -0.135673,0.301782 -0.252384,0.332528 -1.125972,0.296603 -2.443887,-0.152806 -3.535486,-0.332528 -1.345358,-0.2215 -3.22595,-0.248196 -4.545018,0 -0.909023,0.17104 -3.65792,6.062031 -4.293166,7.317066 -0.08729,0.17245 -0.150603,0.86397 -0.252381,0.99806 -0.975724,1.28516 -0.07932,-1.12164 -1.010066,1.33012 -0.226078,0.59557 2.203662,-0.33253 2.525425,-0.33253 1.072167,0 3.456701,1.49342 3.787336,1.33012 0.88114,-0.43522 1.802473,-0.86914 2.525425,-1.66265 0.553794,-0.60785 0.748857,-1.65935 1.514827,-1.99565 0.570494,-0.25046 1.050086,0.46078 1.515362,0.66506 0.64378,0.28265 1.455483,0.82833 2.020126,0.33253 0.19809,-0.17394 0.291828,-0.52482 0.504765,-0.66506 0.66851,-0.44025 3.620573,0.22434 3.787871,0.66506 0.209113,0.55086 -0.372962,3.4846 -0.757681,3.9913 -0.13307,0.17529 -0.371678,0.15724 -0.504767,0.33253 -0.336291,0.44294 -1.948309,3.44526 -2.272507,3.65877 -2.137827,1.40789 -4.261724,1.85684 -6.313295,3.6583 -0.14008,0.12299 -0.354207,-0.0992 -0.504764,0 -0.496967,0.32728 -0.660192,0.86977 -1.010065,1.33059 -0.605644,0.79771 -1.947077,1.72163 -2.777804,1.99518 -0.858881,0.2828 -1.41737,-0.80086 -2.020126,-1.33012 -0.73483,-0.64525 -3.949389,-0.66506 -4.54502,-0.66506 -2.110085,0 -2.262818,0.59052 -4.040252,1.99518 -1.450776,1.1465 -0.309812,-0.25679 -1.010063,0.66553 -0.674308,0.88815 -1.162724,1.70446 -1.767744,2.66071 -0.382833,0.6051 -1.031859,1.28719 -1.010062,1.33011 0.168348,0.33259 0.527252,0.40492 0.75768,0.66507 0.361512,0.40813 0.638261,0.93882 1.010063,1.33059 0.416666,0.43904 0.749215,-1.33559 1.262448,-0.99759 0.870549,0.5733 2.016151,1.32637 2.777804,1.99517 0.198093,0.17394 0.291839,0.5253 0.504766,0.66553 0.810852,0.53399 1.74807,0.71579 2.525423,1.33012 0.144359,0.11408 -0.144346,0.55098 0,0.66506 1.247803,0.9861 2.791022,-0.21546 4.040254,0.333 0.757539,0.3326 0.504774,0.665 1.514829,0.99759 3.171466,1.0443 2.552937,-2.29163 5.807995,1.99565 0.252513,0.33259 0.472007,0.71537 0.757679,0.99759 0.06735,0.0666 0.252384,-0.11086 0.252384,0 0,0.48077 -0.863619,1.51345 -1.010063,1.99565 -0.29726,0.97881 -0.760116,2.99397 -1.767744,3.32576 -0.244977,0.0807 -0.531829,-0.14873 -0.757681,0 -0.417117,0.27473 -0.08761,0.72334 -0.504766,0.99807 -1.258886,0.82905 -2.727365,0.79804 -4.040251,1.66264 -0.425877,0.28047 -0.613891,0.98272 -1.010063,1.33059 -0.723899,0.63564 -1.943747,1.11338 -2.777807,1.66265 -0.816075,0.53744 -2.15313,-0.38506 -3.030189,0 -1.656653,0.72734 -2.982372,2.29714 -4.545018,3.32625 -0.805154,0.53023 -1.953853,0.0225 -2.777806,0.33252 -0.72836,0.2741 -1.587661,1.21211 -2.272508,1.66313 -1.212062,0.79821 -3.333488,-0.79822 -4.545551,0 -0.237623,0.15649 -0.521866,3.03851 -0.757147,3.65829 -0.492484,1.29732 -1.767744,2.78754 -1.767744,4.32383 0,0.22173 0.360409,-0.11407 0.504765,0 0.360886,0.2852 0.649189,0.7124 1.010063,0.99759 0.187019,0.14779 0.561689,-0.12908 0.757682,0 0.438986,0.2891 0.823458,0.70897 1.262445,0.99807 0.645539,0.42512 2.296994,0.36429 2.777806,0.99758 0.844803,1.1127 -0.203362,1.29911 1.51536,1.99565 2.102837,0.85222 3.678237,0.99759 5.807465,0.99759 0.781898,0 1.756345,-0.20261 2.525422,0 1.403379,0.36967 2.739694,1.47168 4.040254,2.32818 0.310419,0.20442 0.764665,0.009 1.010063,0.33253 0.168346,0.22172 -0.430034,0.36757 -0.505299,0.66505 -0.159697,0.63105 0.225862,1.40071 0,1.99566 -0.269221,0.7092 -0.419834,1.99323 -0.757679,2.6607 -0.365913,0.72294 -5.965718,-0.15236 -6.312761,0 -1.82906,0.80304 0.398507,-0.0955 -0.757148,0.66554 -0.07528,0.0496 -0.226285,-0.10518 -0.252915,0 -0.154825,0.61177 0.221483,1.74425 0,2.3277 -0.454533,1.19733 -1.817976,1.79637 -2.27251,2.99371 -0.863565,2.27486 -2.74945,3.95381 -4.040252,5.65395 -0.05953,0.0784 0.07526,0.28293 0,0.33253 -0.677567,0.44622 -1.514968,0 -2.272507,0 -2.428815,0 -4.545638,-0.33195 -6.060381,2.32818 -0.266258,0.4676 -1.053346,1.21678 -0.757678,1.99565 0.284563,0.74962 0.590349,0.82426 1.262445,1.33011 1.668158,1.25554 1.706023,-0.3651 3.030188,0.33254 0.541446,0.28526 0.985514,1.31419 1.515363,1.66312 0.927364,0.61073 1.832425,0.0835 2.777804,0.33252 0.988947,0.26051 1.929656,1.29098 2.777277,1.66313 0.319415,0.14022 0.697461,-0.1647 1.010062,0 1.097737,0.57834 2.351504,1.60579 3.535485,1.99565 0.650239,0.21412 0.679554,-0.4736 1.262447,-0.66554 2.41193,-0.7942 0.696881,0.0828 3.534955,-0.33253 0.418287,-0.0612 0.633642,-0.74969 1.010063,-0.99758 2.241376,-1.47608 3.788711,-4.65728 5.807996,-6.65202 0.558203,-0.5514 1.097516,-1.70139 1.767741,-1.99564 0.638815,-0.28047 1.346764,0 2.020128,0 0.227496,0 1.971251,-0.39622 2.52489,0.333 0.612617,0.8069 -0.263109,2.35667 -0.504764,2.99324 -0.08298,0.2186 -0.02848,1.93305 0,1.99565 0.15615,0.34275 0.543097,0.38242 0.757679,0.66506 0.387198,0.50997 -0.772448,2.19123 -1.010064,2.66071 -0.179367,0.35434 -2.014792,2.13446 -1.515359,2.6607 0.353955,0.37295 0.85702,0.39808 1.262445,0.66507 0.696621,0.45877 1.147273,1.25449 1.767744,1.66311 0.349523,0.23018 1.488506,-0.0735 1.767744,0 0.116741,0.0307 0.136905,0.29455 0.252381,0.33253 0.734931,0.242 1.518723,0.0993 2.27251,0 1.455127,-0.19165 2.597153,-1.87656 3.787871,-2.66071 0.474569,-0.31255 0.527622,-1.23951 1.010062,-1.66312 0.07003,-0.0615 0.225752,0.10517 0.252382,0 0.148255,-0.5858 -0.136788,-1.8156 0.252385,-2.32818 0.133088,-0.17529 0.372208,-0.15724 0.505296,-0.33253 0.675736,-0.89001 1.582745,-2.69814 2.020126,-3.65829 0.149057,-0.32721 1.68816,-2.90934 1.767744,-2.99324 0.185894,-0.19588 0.298046,0.50949 0.504769,0.66506 3.244127,2.44162 -0.331196,-0.7391 3.282567,2.66071 1.18015,0.93264 3.46152,0.29155 2.7778,2.99324 -0.74297,2.93574 -0.55657,3.72641 -2.2725,5.98647 -0.28981,0.38172 -1.99448,2.0124 -1.01007,2.66071 0.62221,0.40975 2.44664,0.71731 3.0302,0.33301 0.10645,-0.0702 0.16817,-0.22215 0.25237,-0.33301 0.42085,-0.22173 0.84161,-0.44333 1.26247,-0.66505 1.34829,-0.50739 -0.5667,0.87241 1.26295,-0.33253 0.10648,-0.0702 0.13692,-0.29447 0.2524,-0.33254 0.24498,-0.0807 0.52322,0.12352 0.75766,0 0.22104,-0.11645 0.33644,-0.44332 0.50478,-0.66505 0.16834,-0.11087 0.32675,-0.25417 0.5053,-0.33253 0.92406,-0.4057 2.36818,0.12567 3.03019,0.99758 0.67538,0.88955 0.2604,1.00487 1.01006,1.66313 0.48799,0.42849 4.28788,-0.14336 5.04979,0 0.6066,0.11415 1.15499,0.66505 1.76773,0.66505 0.30638,0 1.31846,-2.63264 2.02014,-3.32576 0.37326,-0.36872 1.30397,-0.20742 1.76774,-0.66554 0.90787,-0.89694 1.83325,-1.70613 2.77781,-2.32818 0.27144,-0.17875 0.50463,-0.44333 0.75715,-0.66505 0.16833,-0.22173 0.29233,-0.52484 0.50528,-0.66506 0.54121,-0.35641 1.52423,0.2019 2.02014,0.33253 0.24761,0.0652 0.64484,-0.29748 0.75766,0 0.1194,0.31449 0.12225,2.75175 0,2.99324 -0.45774,0.90461 -1.23687,1.29642 -1.76773,1.99564 -0.18229,0.24012 -1.51535,3.19245 -1.51535,3.32577 0,0.22172 0.36524,-0.12299 0.50528,0 0.29713,0.2609 0.55959,0.60671 0.75769,0.99807 0.52937,1.04591 0.091,1.02574 0.50475,2.6607 0.0517,0.20423 2.65981,-1.59656 2.77783,-1.66312 1.43765,-0.81153 2.56117,-2.11399 3.78785,-3.32576 0.19046,-0.18815 0.29182,-0.52531 0.50478,-0.66554 0.3104,-0.20442 0.69967,-0.1281 1.01007,-0.33253 0.90859,-0.59835 2.13907,-2.99323 3.28257,-2.99323 0.30278,0 0.65875,1.40247 0.75766,1.66311 0.97878,2.5783 1.39696,7.40187 4.04027,7.98213 0.11741,0.0258 0.15337,-0.2455 0.25237,-0.33253 0.6612,-0.58057 0.84784,-0.57093 1.26244,-1.66312 0.20548,-0.54121 -0.13594,-1.20264 -0.25238,-1.66264 -0.24984,-0.98719 0.15493,-2.30594 0,-3.32624 -0.0595,-0.39197 -0.39204,-0.62646 -0.50477,-0.9976 -0.0915,-0.30116 -0.4739,-2.51126 0.50477,-1.99564 0.3495,0.18414 0.64811,0.52885 1.01007,0.66505 0.24277,0.0914 0.52559,-0.13101 0.75769,0 0.66553,0.37568 1.25575,0.98877 1.76773,1.66312 0.37387,0.49239 -0.58834,0.24981 0.25238,0.66507 0.57376,0.28339 1.19399,0.38166 1.76776,0.66505 0.60619,0.2994 1.06471,1.293 1.76721,1.66312 0.0781,0.0411 0.16869,0 0.25292,0 0.42088,0.22171 0.84158,0.44334 1.26243,0.66506 0.36789,0.26921 0.71248,0.6061 1.01007,0.99807 0.13308,0.17529 0.0776,0.57295 0.25237,0.66505 0.87724,0.46216 1.68112,-0.65027 2.52543,-0.33253 0.43584,0.16402 0.81647,0.55827 1.26243,0.66506 1.56446,0.37466 3.44751,-0.26332 4.79742,-1.33011 0.59734,-0.47207 2.49821,-2.10015 3.03019,-2.66071 0.14699,-0.15485 0.11981,-0.49024 0.25292,-0.66554 0.26616,-0.35057 0.69684,-0.39004 1.01007,-0.66505 1.80095,-1.58139 4.29263,-2.51423 4.29263,-5.98649 0,-0.0322 -0.8726,0.4923 -1.76776,0.9976 -1.26581,0.71458 -3.18488,0.46601 -4.545,0.66505 -0.90667,0.1327 -2.45192,0.25248 -3.28257,0 -2.09277,-0.63608 -3.58686,-2.32818 -5.55563,-2.32818 -2.74333,0 -4.04505,0.97323 -4.79792,-2.99324 -0.28377,-1.4949 0.62591,0.31801 -0.2524,-1.99564 -0.16208,-0.42703 -2.77195,0.22418 -3.28257,0 -0.43954,-0.19298 -2.12487,-2.21537 -2.27251,-2.99324 -0.0408,-0.21511 0.0934,-0.48057 0,-0.66506 -0.10438,-0.20626 -0.32909,-0.24551 -0.50529,-0.33253 -0.76403,-0.37736 -2.42425,-1.2807 -3.28258,-0.99807 -0.71318,0.23485 -1.28152,1.19263 -2.02012,0.99807 -1.23184,-0.32449 -2.43595,-0.85892 -3.53495,-1.66312 -0.59324,-0.43408 -1.12396,-1.04749 -1.76775,-1.33012 -0.96012,-0.42155 -2.13121,-0.62013 -3.03018,-1.33059 -0.35569,-0.28109 -2.68415,-3.62074 -2.77782,-3.99082 -0.0679,-0.26831 4.9506,-7.89503 5.05033,-7.98261 0.65734,-0.5772 1.53021,-0.75316 2.27251,-0.99758 0.69074,-0.22745 0.40634,-0.46749 1.01006,-0.99759 0.40518,-0.35573 0.78177,0.30123 1.26298,-0.33253 0.41662,-0.54876 -0.0731,-1.55812 0,-2.32817 0.0234,-0.24598 0.20673,-0.42504 0.25238,-0.66554 0.32789,-1.72756 -0.34046,-3.04736 1.51482,-3.6583 0.73946,-0.24348 1.54941,-0.015 2.27252,-0.33253 1.44553,-0.63466 2.73797,-2.13563 4.04024,-2.99324 0.21295,-0.14023 0.27944,-0.56637 0.50532,-0.66553 0.23942,-0.10517 0.53182,0.14874 0.75766,0 0.63092,-0.4155 0.99919,-1.96715 1.26244,-2.66071 0.0401,-0.10553 1.28385,-3.15251 0.7577,-3.32577 -0.32665,-0.10755 -0.68343,0.10756 -1.01008,0 -1.38036,-0.45452 -2.61222,-1.93801 -4.04025,-0.99758 -1.15736,0.76219 -2.69861,2.7408 -4.04024,2.99324 -2.55151,0.48008 -4.79061,-1.9923 -7.07046,-2.99324 -2.16271,-0.94952 -6.06333,0.4418 -7.82812,-0.33301 -1.18322,-0.51948 -2.04179,-1.79282 -3.03017,-2.66071 -0.46982,-0.41253 -1.03605,-0.60342 -1.51485,-0.99758 -1.21088,-0.99681 0.0541,-0.26136 -0.75766,-1.3306 -0.13311,-0.17529 -0.39239,-0.13421 -0.50531,-0.33253 -0.48849,-0.85784 -0.92163,-4.10743 -0.25237,-4.98889 0.8258,-1.08773 2.17905,-2.12114 3.28256,-2.99323 1.00432,-0.79368 5.02429,1.1316 5.55562,0.66506 1.08189,-0.94997 2.02818,-2.60248 3.03019,-3.6583 0.27885,-0.29383 0.54341,-0.6213 0.75767,-0.99759 0.10097,-0.17738 -0.15057,-0.56637 0,-0.66553 0.90391,-0.59526 5.04388,0.49818 6.06039,0.66553 0.89064,0.14664 5.22207,-0.54531 4.29264,-2.99371 -0.52971,-1.39535 -0.54814,-1.41024 -1.76776,-2.32817 -0.36538,-0.27502 -0.63363,-0.7497 -1.01006,-0.9976 -0.51664,-0.34024 -2.62279,-0.13941 -3.28258,-0.33252 -2.25378,-0.65968 -7.78974,-4.86216 -9.34293,-7.31707 -0.20678,-0.32684 -1.11483,-2.13317 -1.51538,-2.66071 -0.79341,-1.04501 -0.3745,0.68814 -0.75766,-1.33059 -0.18505,-0.97482 -0.1431,-2.23371 0.50528,-2.66071 2.18284,-1.43752 3.28366,0.88644 5.3027,0 1.03529,-0.45452 1.45818,-2.10258 1.76774,-3.32577 0.96684,-3.820213 -3.29142,-4.549184 -5.0503,-5.321417 -0.22585,-0.09916 -0.29237,-0.524824 -0.5053,-0.665057 -0.63627,-0.419035 -1.68432,-0.814108 -2.2725,-1.330593 -0.4653,-0.408558 -2.11043,-2.352725 -2.27253,-2.993236 -0.0533,-0.210351 0.0533,-0.454708 0,-0.665058 -0.3514,-1.38857 -1.40434,-1.882516 -0.5053,-3.658773 0.43274,-0.854966 1.4486,-3.77364 2.27306,-3.990821 1.52291,-0.401172 4.41968,2.326837 4.7974,1.995166 0.47644,-0.418337 0.90879,-0.854127 1.37137,-1.290091 0.0987,0.173842 0.18472,0.323834 0.28265,0.496413 0.0653,-0.05089 0.12784,-0.09853 0.18809,-0.14388 -0.10025,-0.182959 -0.19184,-0.350237 -0.28744,-0.524992 0.0729,-0.06675 0.13719,-0.133481 0.21306,-0.200088 0.1792,-0.15734 1.24251,-0.919554 1.26244,-0.998062 0.48862,-1.93068 -1.7323,-3.27944 -2.52487,-4.323357 -0.30758,-0.40509 -0.11858,-0.743371 -0.5053,-0.998063 -0.46358,-0.305285 -0.77029,0.31574 -1.26246,-0.332527 -0.95993,-1.264343 -1.49318,-3.144825 -2.77779,-3.99083 -0.0989,-0.06509 -0.22006,-0.0055 -0.33475,0.01715 -1.45571,-2.661806 -2.61498,-4.794104 -2.69546,-5.006039 -0.0391,-0.103068 1.13499,0.05236 2.56528,0.26298 v -0.159598 c 0.003,-0.103861 -0.0542,-0.258159 -0.0537,-0.367781 -1.74719,-0.34773 -3.25,-0.657616 -3.26927,-0.733663 -0.12959,-0.512094 -1.44005,-2.759399 -1.01006,-3.325765 0.21461,-0.282653 0.29013,0.714939 0.50474,0.997583 0.4032,0.531067 1.87848,-0.602864 2.02013,-0.665055 0.23954,-0.10517 0.53184,0.148738 0.7577,0 0.43782,-0.288342 1.48358,-0.769193 1.76773,-1.33059 0.63222,-1.249104 0.0215,-1.576524 -0.25292,-2.66071 -0.15514,-0.612987 0.18638,-1.084739 -0.25237,-1.662648 -0.0595,-0.07836 -0.18225,0.06149 -0.25238,0 -0.35055,-0.30783 -1.83052,-1.95357 -2.02013,-2.328172 -0.10438,-0.206265 -0.10179,-0.516326 -0.25238,-0.665065 -0.30114,-0.297477 -0.69683,-0.390515 -1.01006,-0.665535 -0.6085,-0.534312 2.02079,-1.475585 3.24323,-2.33151 0.6713,0.685595 0.66464,0.474767 0.28747,-0.225818 0.27447,-0.24598 0.40037,-0.48169 0.24016,-0.692685 -0.0791,-0.104155 -0.48412,-0.35138 -1.0462,-0.667443 -1.23841,-2.013087 -3.19578,-4.974943 -3.98764,-6.392846 -0.14307,-0.256195 0.41685,-0.373911 0.5053,-0.665055 0.27821,-0.916069 1.52805,-6.340888 1.20451,-7.193208 -0.0376,-0.09916 -0.90547,-3.357386 -0.95215,-3.449631 -0.32101,-0.6342 -0.41238,-2.538485 -0.75766,-2.993237 -0.0595,-0.07836 -0.21478,0.09916 -0.25238,0 -0.48001,-1.264454 0.35423,-2.760293 -1.01006,-3.658773 -0.26551,-0.174855 -0.95916,0 -1.26247,0 -0.16162,0 -1.24023,-0.387205 -1.26189,-0.332527 z m 3.42336,20.543432 c 0.0336,0.0018 0.0705,0.02618 0.1116,0.07716 1.10484,1.370075 1.88383,2.309219 2.60937,3.177607 -1.54382,-0.831282 -3.15262,-1.694951 -3.11415,-1.847017 0.0926,-0.366112 0.158,-1.422623 0.39318,-1.407771 z m -8.97897,7.726774 c -0.0422,0.110987 -0.37624,0.251299 -0.90805,0.411137 0.54147,-0.281417 0.9309,-0.471309 0.90805,-0.411137 z m -6.51893,5.486254 c 2.25918,0.174247 3.92511,0.410382 3.74165,0.833227 -0.22487,0.518364 -0.33696,1.108331 -0.50529,1.662648 -0.80571,-1.061203 -1.47363,-1.486077 -2.50151,-2.310076 -0.20542,0.0055 -0.49362,0.0046 -0.52869,-0.01807 -0.0683,-0.04499 -0.13708,-0.103741 -0.20616,-0.167693 z m 0.73485,0.185799 c 0.21605,-0.0055 0.3406,-0.01807 -0.0234,-0.01807 0.008,0.0065 0.0149,0.01143 0.0234,0.01807 z" />
    <text
       xml:space="preserve"
       style="font-style:normal;font-variant:normal;font-weight:normal;font-stretch:normal;font-size:24.6944px;line-height:1.25;font-family:Impact;-inkscape-font-specification:Impact;letter-spacing:2.9278px;word-spacing:-1.5875px;white-space:pre;inline-size:143.017;fill:#16502d;fill-opacity:1;stroke:none;stroke-width:32.88154074;stroke-miterlimit:4;stroke-dasharray:none"
       x="51.03093"
       y="133.36082"
       id="text49813"
       transform="matrix(1.303032,0,0,1.9882855,-46.763071,-149.58811)"><tspan
         x="51.03093"
         y="133.36082"
         id="tspan66684"><tspan
           dx="0 0 0 0 0 0 0 0 0 1.5874988"
           id="tspan66682">Northwest
</tspan></tspan><tspan
         x="51.03093"
         y="164.22883"
         id="tspan66688"><tspan
           dx="0 0 -1.5874999"
           id="tspan66686">  Republic</tspan></tspan></text>
    <path
       style="fill:#502d16;stroke:#000000;stroke-width:1.565;stroke-linecap:butt;stroke-linejoin:miter;stroke-opacity:1;stroke-miterlimit:4;stroke-dasharray:none"
       d="m 103.78632,178.56219 c -1.96308,0.47807 -3.987649,0.75141 -5.889229,1.43421 -0.10573,0.038 0,3.81074 0,5.4433 0,0.93804 -0.0451,0.81557 -0.3402,1.70103 -0.23913,0.71734 -0.21691,9.77242 0,10.20619 0.0507,0.10142 0.26,-0.0802 0.3402,0 0.30951,0.30952 -0.0643,2.25293 0.3402,3.06185 0.79782,1.59566 -0.79804,5.88845 0,7.48454 0.1171,0.23421 1.65224,0.3402 2.041229,0.3402 1.06524,0 2.73418,0.33603 3.74227,0 1.17277,-0.39092 0.25202,-0.3402 1.02063,-0.3402 1.94575,0 3.82625,0.3402 5.7835,0.3402 0.37386,0 2.40215,0.3195 2.72164,0 0.24892,-0.24892 -0.22501,-1.35542 -0.3402,-1.70103 -0.19998,-0.59991 -0.0975,-1.89606 -0.34021,-2.38144 -0.36793,-0.73584 -0.75244,-1.91715 -1.02063,-2.72165 -0.24918,-0.74755 -0.0763,-1.58968 -0.3402,-2.38144 -0.85174,-2.55526 1.88799,-7.45086 1.02063,-9.18557 -0.22077,-0.44151 -2.01628,-0.80567 -2.10867,-0.83787"
       id="path61398" />
    <text
       xml:space="preserve"
       style="font-style:normal;font-variant:normal;font-weight:normal;font-stretch:normal;font-size:24.6944px;line-height:1.25;font-family:Impact;-inkscape-font-specification:Impact;letter-spacing:2.9278px;word-spacing:-1.5875px;white-space:pre;inline-size:143.017;fill:#ffffff;fill-opacity:1;stroke:none;stroke-width:0.264583"
       x="51.03093"
       y="133.36082"
       id="text64903"
       transform="matrix(1.303032,0,0,1.9882855,-44.721836,-148.9077)"><tspan
         x="51.03093"
         y="133.36082"
         id="tspan66692"><tspan
           dx="0 0 0 0 0 0 0 0 0 1.5874988"
           id="tspan66690">Northwest
</tspan></tspan><tspan
         x="51.03093"
         y="164.22883"
         id="tspan66696"><tspan
           dx="0 0 -1.5874999"
           id="tspan66694">  Republic</tspan></tspan></text>
  </g>
</svg>
